<svg xmlns="http://www.w3.org/2000/svg" xmlns:xlink="http://www.w3.org/1999/xlink" width="1000" zoomAndPan="magnify" viewBox="0 0 750 749.999995" height="1000" preserveAspectRatio="xMidYMid meet" version="1.0"><defs><clipPath id="c9e42d9e8c"><path d="M 135.894531 18.789062 L 614.394531 18.789062 L 614.394531 73 L 135.894531 73 Z M 135.894531 18.789062 " clip-rule="nonzero"/></clipPath><clipPath id="42d690e0b8"><path d="M 237 166 L 514 166 L 514 675.039062 L 237 675.039062 Z M 237 166 " clip-rule="nonzero"/></clipPath></defs><path fill="#10588c" d="M 205.246094 92.839844 L 545.03125 92.839844 C 534.832031 109.652344 526.855469 127.625 521.421875 146.464844 L 228.859375 146.464844 C 223.425781 127.625 215.445312 109.652344 205.246094 92.839844 Z M 205.246094 92.839844 " fill-opacity="1" fill-rule="evenodd"/><g clip-path="url(#c9e42d9e8c)"><path fill="#10588c" d="M 135.953125 18.789062 L 614.324219 18.789062 C 592.945312 34.175781 574.253906 52.25 558.945312 72.414062 L 191.335938 72.414062 C 176.023438 52.25 157.335938 34.175781 135.953125 18.789062 Z M 135.953125 18.789062 " fill-opacity="1" fill-rule="evenodd"/></g><g clip-path="url(#42d690e0b8)"><path fill="#10588c" d="M 290.828125 166.894531 L 290.828125 675.046875 L 237.175781 675.046875 L 237.175781 166.894531 Z M 513.109375 166.894531 L 513.109375 458.632812 L 459.453125 458.632812 L 459.453125 166.894531 Z M 439.015625 166.894531 L 439.015625 530.769531 L 385.359375 530.769531 L 385.359375 166.894531 Z M 364.921875 166.894531 L 364.921875 602.910156 L 311.269531 602.910156 L 311.269531 166.894531 Z M 364.921875 166.894531 " fill-opacity="1" fill-rule="evenodd"/></g></svg>