<svg xmlns="http://www.w3.org/2000/svg" xmlns:xlink="http://www.w3.org/1999/xlink" width="171" zoomAndPan="magnify" viewBox="0 0 128.25 129.000003" height="172" preserveAspectRatio="xMidYMid meet" version="1.0"><defs><clipPath id="92b56b95ec"><path d="M 66 44.707031 L 125.679688 44.707031 L 125.679688 106.714844 L 66 106.714844 Z M 66 44.707031 " clip-rule="nonzero"/></clipPath></defs><path fill="#1a1a1a" d="M 31.394531 44.128906 C 29.917969 44.253906 29.339844 44.359375 27.882812 44.675781 C 21.21875 46.117188 15.0625 50.292969 10.878906 55.757812 C 1.101562 68.539062 0.152344 89.894531 13.136719 99.0625 C 24.128906 106.832031 34.800781 108.347656 47.582031 102.613281 C 64.84375 94.871094 66.867188 67.742188 56.5625 54.707031 C 53.082031 50.300781 48.992188 47.3125 43.667969 45.386719 C 39.453125 43.863281 35.734375 43.761719 31.394531 44.128906 " fill-opacity="1" fill-rule="evenodd"/><path fill="#cccccc" d="M 31.519531 46.398438 C 30.148438 46.515625 29.613281 46.613281 28.265625 46.902344 C 22.089844 48.238281 16.386719 52.109375 12.507812 57.175781 C 3.449219 69.015625 2.566406 88.804688 14.597656 97.300781 C 24.789062 104.5 34.671875 105.90625 46.519531 100.589844 C 62.511719 93.414062 64.390625 68.277344 54.84375 56.199219 C 51.617188 52.117188 47.824219 49.347656 42.894531 47.566406 C 38.984375 46.152344 35.542969 46.058594 31.519531 46.398438 " fill-opacity="1" fill-rule="evenodd"/><path fill="#ffffff" d="M 31.519531 46.398438 C 30.148438 46.515625 29.613281 46.613281 28.265625 46.902344 C 22.089844 48.238281 16.386719 52.109375 12.507812 57.175781 C 8.125 62.90625 5.65625 70.5 5.636719 77.773438 C 6.226562 84.472656 9.027344 90.640625 14.480469 94.492188 C 24.667969 101.6875 34.554688 103.09375 46.402344 97.78125 C 56.0625 93.445312 60.570312 82.554688 60.523438 71.949219 C 60.039062 66 58.109375 60.332031 54.84375 56.199219 C 51.617188 52.117188 47.824219 49.347656 42.894531 47.566406 C 38.984375 46.152344 35.542969 46.058594 31.519531 46.398438 " fill-opacity="1" fill-rule="evenodd"/><path fill="#1a1a1a" d="M 23.875 59.621094 C 24.488281 59.792969 24.722656 59.882812 25.3125 60.128906 C 28.015625 61.261719 30.285156 63.511719 31.621094 66.148438 C 34.746094 72.3125 33.46875 81.402344 27.265625 84.25 C 22.015625 86.664062 17.390625 86.460938 12.445312 83.035156 C 5.769531 78.40625 7.042969 66.796875 12.417969 62.105469 C 14.234375 60.519531 16.195312 59.582031 18.59375 59.1875 C 20.492188 58.875 22.070312 59.125 23.875 59.621094 " fill-opacity="1" fill-rule="evenodd"/><path fill="#ffffff" d="M 21.96875 60.785156 C 21.746094 60.753906 21.398438 60.722656 21.175781 60.710938 C 20.238281 60.667969 19.226562 60.710938 18.359375 61.066406 C 16.832031 61.699219 16.09375 61.554688 17.578125 64.15625 C 17.703125 64.371094 17.8125 64.59375 18.023438 64.734375 C 18.742188 65.207031 20.828125 65.152344 21.796875 65.242188 C 22.460938 65.300781 22.644531 65.378906 23.335938 65.28125 C 24.472656 65.117188 26.671875 64.972656 26.796875 63.527344 C 26.933594 61.96875 23.097656 60.945312 21.96875 60.785156 Z M 12.601562 64.242188 C 13.15625 63.34375 14.210938 62.285156 15.335938 62.964844 C 15.921875 63.316406 16.636719 64.683594 16.046875 65.226562 C 15.667969 65.574219 15.550781 65 14.199219 65.558594 C 13.675781 65.777344 13.371094 65.890625 12.949219 65.398438 C 12.640625 65.035156 12.253906 64.8125 12.601562 64.242188 " fill-opacity="1" fill-rule="evenodd"/><path fill="#1a1a1a" d="M 50.882812 32.679688 C 50.125 22.1875 24.941406 19.78125 16.195312 33.609375 C 27.203125 24.191406 45.222656 24.296875 50.882812 32.679688 " fill-opacity="1" fill-rule="evenodd"/><g clip-path="url(#92b56b95ec)"><path fill="#1a1a1a" d="M 94.871094 44.761719 C 96.351562 44.761719 96.9375 44.816406 98.414062 45.007812 C 105.175781 45.878906 111.660156 49.519531 116.289062 54.613281 C 127.109375 66.523438 129.855469 87.722656 117.691406 97.957031 C 107.386719 106.621094 96.886719 109.035156 83.664062 104.402344 C 65.816406 98.144531 61.507812 71.28125 70.679688 57.421875 C 73.777344 52.742188 77.601562 49.417969 82.742188 47.050781 C 86.816406 45.175781 90.511719 44.761719 94.871094 44.761719 " fill-opacity="1" fill-rule="evenodd"/></g><path fill="#cccccc" d="M 94.9375 47.03125 C 96.308594 47.03125 96.851562 47.082031 98.21875 47.257812 C 104.488281 48.066406 110.496094 51.441406 114.785156 56.164062 C 124.8125 67.195312 127.355469 86.839844 116.082031 96.324219 C 106.539062 104.355469 96.804688 106.589844 84.554688 102.296875 C 68.015625 96.496094 64.023438 71.609375 72.519531 58.765625 C 75.390625 54.425781 78.9375 51.347656 83.699219 49.152344 C 87.476562 47.414062 90.898438 47.03125 94.9375 47.03125 " fill-opacity="1" fill-rule="evenodd"/><path fill="#ffffff" d="M 94.9375 47.03125 C 96.308594 47.03125 96.851562 47.082031 98.21875 47.257812 C 104.488281 48.066406 110.496094 51.441406 114.785156 56.164062 C 119.609375 61.472656 122.703125 68.78125 123.355469 75.988281 C 123.304688 82.667969 121.035156 89.003906 115.953125 93.273438 C 106.40625 101.308594 96.675781 103.542969 84.425781 99.246094 C 74.472656 95.757812 69.066406 85.359375 68.1875 74.832031 C 68.1875 68.898438 69.628906 63.136719 72.519531 58.765625 C 75.390625 54.425781 78.9375 51.347656 83.699219 49.152344 C 87.472656 47.414062 90.898438 47.03125 94.9375 47.03125 " fill-opacity="1" fill-rule="evenodd"/><path fill="#1a1a1a" d="M 86.125 60.253906 C 86.742188 60.402344 86.980469 60.484375 87.578125 60.714844 C 90.3125 61.761719 92.65625 63.933594 94.074219 66.527344 C 97.390625 72.589844 96.402344 81.714844 90.292969 84.761719 C 85.121094 87.335938 80.496094 87.285156 75.441406 84.015625 C 68.621094 79.601562 69.53125 67.957031 74.753906 63.097656 C 76.515625 61.453125 78.449219 60.453125 80.832031 59.984375 C 82.722656 59.613281 84.304688 59.8125 86.125 60.253906 " fill-opacity="1" fill-rule="evenodd"/><path fill="#ffffff" d="M 84.253906 61.476562 C 84.035156 61.453125 83.683594 61.429688 83.460938 61.425781 C 82.523438 61.410156 81.511719 61.488281 80.65625 61.871094 C 79.152344 62.550781 78.410156 62.429688 79.976562 64.980469 C 80.105469 65.191406 80.222656 65.414062 80.4375 65.546875 C 81.171875 65.996094 83.253906 65.875 84.226562 65.933594 C 84.890625 65.972656 85.078125 66.046875 85.765625 65.925781 C 86.898438 65.722656 89.089844 65.507812 89.171875 64.0625 C 89.257812 62.5 85.390625 61.597656 84.253906 61.476562 " fill-opacity="1" fill-rule="evenodd"/><path fill="#ffffff" d="M 75.003906 65.230469 C 74.675781 65.808594 75.066406 66.019531 75.386719 66.371094 C 75.824219 66.851562 76.125 66.726562 76.640625 66.492188 C 77.972656 65.890625 78.109375 66.460938 78.476562 66.101562 C 79.050781 65.539062 78.292969 64.195312 77.699219 63.863281 C 76.550781 63.21875 75.527344 64.3125 75.003906 65.230469 " fill-opacity="1" fill-rule="evenodd"/><path fill="#1a1a1a" d="M 77.785156 31.316406 C 79.664062 20.925781 105.074219 20.496094 112.332031 34.945312 C 102.34375 24.710938 84.332031 23.410156 77.785156 31.316406 " fill-opacity="1" fill-rule="evenodd"/></svg>